<svg id="圖層_1" data-name="圖層 1" xmlns="http://www.w3.org/2000/svg" viewBox="0 0 1291.62 768.49"><defs><style>.cls-1{fill:none;}.cls-2{fill:#f9a451;}.cls-3{fill:#fff;}.cls-4{fill:#79cee2;}</style></defs><title>alertmsgbg</title><path class="cls-1" d="M1031.18,278.93l-.25-.32.25.32Z" transform="translate(-37 -2.51)"/><path class="cls-2" d="M1308.17,211.22c.08-.66.3-2.31.63-4.91-1.74.12-4.61-.28-4.94.46-1.3,2.89-1.8,6.15-2.88,10.39-10.87,2.7-23.25,5.78-35.63,8.84-6.06,1.49-12.12,2.95-18.18,4.42-4.24,1-11.79-4.11-12.73-8.4-1.14-5.25-1.6-11-8.17-12.94-.8-.24-1.22-1.78-1.79-2.74-2.89-4.93-5.75-9.88-8.67-14.79-.28-.47-.88-.74-2.12-1.73,0,4.53-.49,8.34.09,12q2.15,13.25,5.19,26.32c.72,3.06.36,4.85-2.57,6-12.36,4.81-24.69,9.69-37.1,14.36-.89.33-2.68-.56-3.49-1.41-10.61-11-22.68-19.68-38-23.4.64-3.05,1.31-6,1.86-8.93.68-3.61,1.81-6.55,6-7.74,1.64-.47,3.88-2.85,3.8-4.24a6.83,6.83,0,0,0-3.62-5c-4.55-1.72-9.41-2.61-14.59-3.94l2.22-4.53c9.2-18.61,15.75-37.92,13.56-59.05a68.35,68.35,0,0,0-4.7-18.47c-5.72-14.09-14.73-20.69-29.77-23.07,5.46-12.17,27.17-18.93,44-13.7-.83-4.35-1.91-5.47-8.34-9.64,5.17-.61,10.33-1.7,15.49-1.71,4.68,0,6.72,2.67,5.8,7.36-1.13,5.78-3.46,11.34-4.47,17.14-1.32,7.63-2,15.4-2.61,23.13-.16,2.22,1.12,4.54,2.19,6.84,2.08-10.77,9.11-18.39,15.51-26.41,4.59-5.75,9.53-11.33,13.24-17.62a44.4,44.4,0,0,0,5.68-16c1.35-9.86-3.3-17.29-12-22.11-1.51-.83-3.08-1.54-4.69-2.34,4.58-4.5,8.82-3.75,16,2.64.36-8.73-6.11-13.85-18.64-14.74,5.63-4.07,15.21-1.3,25.33,7.76-2-8.58-5.84-15.13-12.72-19C1186.59,7,1180.11,5,1174,2.51h-17.29a26.8,26.8,0,0,1-3.1,1c-15.81,3.17-29,10.6-39,23.51a17.78,17.78,0,0,1-1.34,1.41l-5-10.89c-4.28,8.62-8.28,16.7-12.32,24.75-1.43,2.86-3,5.64-4.44,8.51-6,12.29-9.31,25.2-8.25,39,.21,2.77-1.06,3.57-3.2,4.39-9.69,3.72-18.66,8.9-25.65,16.51-12.74,13.88-24.9,28.3-37.24,42.56a41.67,41.67,0,0,0-3.74,5.57c-4.17,6.82-4.34,8.43.63,14.61,4.8,6,10.16,11.46,15.25,17.13.24,3.63-4.84,6.45-1.81,11.33l16-9.93-17-14.81a117.63,117.63,0,0,1,18.11,10.05c2.91,1.93,5.1,2,7.39-1.16l-12.39-10.77a50.84,50.84,0,0,1,12.94,6.19c3.58,2.39,6.31,2.12,9.15-1.38l-13.1-11.54c5.35,2,10.06,4.93,15,7.3a7.47,7.47,0,0,0,5.9-.1c5.54-3,10.8-6.46,16.16-9.75l.48.77-52.3,37.62c3.94,12.37,12.51,12.1,21.81,8.61-1.39,4.16-3.82,8-3.54,11.55s3.29,6.82,5,9.93l-17.74,22.11c-12.85-4.78-26.2-9.68-39.48-14.73-6.42-2.44-12.71-5.2-19.09-7.75-2.94-1.17-3.29-2.94-2.58-6,2-8.7,3.76-17.49,5.19-26.31.59-3.64.1-7.44.1-12.64-2.6,3.58-4.34,5.85-5.95,8.21-1.2,1.78-2.25,3.66-3.34,5.52-1.26,2.13-2,5.42-3.83,6.2a10.22,10.22,0,0,0-6.49,8.27,16.12,16.12,0,0,1-7.47,11.79c-2.28,1.57-3.91,2-6.43,1.31-10.69-2.76-21.43-5.32-32.15-8l-21.59-5.34c-1.12-4.3-1.64-7.55-2.94-10.44-.33-.72-3.21-.29-4.85-.38.28,2.6.45,4.25.54,5-5.95,0-11.26-.31-16.48.21-1.42.14-3.51,2.71-3.64,4.3a7.7,7.7,0,0,0,2.49,5.7c3.82,3.09,8.14,5.57,13.69,9.25l-5.09,2.08.36,1.6c1.53.79,3.76,2.64,4.48,2.18,2.54-1.65,4.57-4.09,7.41-6.83.49.19,2.25.84,4,1.57L943,251.22c5.12,2.16,8,10.25,6.45,15.64-1.17,4-2.34,8.71-1.21,12.39s.78,6.53.43,10c-.51,4.94-.13,10-.13,15l1.48.24c1.39-2.08,3.11-4,4.13-6.28,3.62-8,7.29-16,10.4-24.2,3-8,2.71-8.08,11-6.18.31.07.61.17.92.26q25.34,7.41,50.65,14.85a14.53,14.53,0,0,1,2.59,1.35l0,1.3c-11.36,2.93-22.73,5.84-34.08,8.81a120.21,120.21,0,0,0-11.9,3.45c-3.86,1.46-5.6,4.61-5.11,8.8.45,3.77,1,7.53,1.56,12.14-39.93,9.52-77.34,24.61-112.1,49.08,42.32-1,81-11.34,118.63-27.51.53,2.06.85,3.09,1,4.14,7.67,42,15,84.12,23.06,126.07,14,72.9,28.77,145.66,48.81,217.21,6.38,22.81,12.88,45.65,23.87,66.76,3.15,6.06,8.4,11,12.68,16.51h4.8c6.35-4.29,10.06-10.64,13.28-17.28,10.76-22.13,17.63-45.64,24.19-69.23,17.38-62.48,30.77-125.88,43.1-189.5,9.68-49.95,18.55-100.06,27.78-150.09.22-1.21.56-2.39,1-4.07,11.32,4,22.38,7.68,33.24,11.85,26,10,53.4,12.8,80.85,15.18a24.82,24.82,0,0,0,4.28-.32v-1c-7.41-4.34-14.91-8.55-22.22-13.05-24.5-15.06-51.29-24.41-78.8-32-3.51-1-7-2.18-10.59-3.32.52-4.1,1-7.86,1.47-11.64a7.8,7.8,0,0,0-5.14-8.79,68.92,68.92,0,0,0-9.53-3.12c-12.49-3.12-25-6.1-37.53-9.93,21.16-6.52,41.87-13.92,63.66-18.46,4.47,13.94,8.84,27,18.31,37.86,0-5.18-.1-10.35,0-15.52.08-3,.87-6,.76-9-.16-4.34-.31-8.81-1.46-12.94-1.41-5.07,1.49-13.31,6.29-15.33,17.37-7.33,34.75-14.64,51.12-21.54,2.78,2.66,5,5.15,7.59,6.93.62.42,2.84-1.52,4.53-2.49l-3.8-4,15.3-10.6v-5.77C1322.39,208.65,1315.44,212.74,1308.17,211.22Zm-90.1,9.88q-1.07-9.48-2.14-18.95l1-.1q1,8.77,2.07,17.57C1219.09,220.07,1219,220.55,1218.07,221.1ZM980.12,201.46l1,.09q-1,9.81-1.93,19.64l-1.18-.12Q979.05,211.26,980.12,201.46Zm-26,59.37c-5.38-4.57-5.18-8.6,1.14-10.69C950.88,253.88,951.89,257.3,954.1,260.83Zm-12.27-19.09c.22-.41.44-.82.65-1.23l18.25,6.56C952.83,250,948.15,243.46,941.83,241.74Zm17-3.34c-4.5-5.11-2.82-8.44,4.57-9.55C960,231,956,232.82,958.88,238.4ZM905.4,355.93l-.31-.87L983,325.82c1.1,2.37,1.94,4.2,3.08,6.68ZM1214,325.83l78,29.24c-.09.29-.18.58-.28.87L1211,332.52C1212.14,330,1213,328.21,1214,325.83Zm12.18-75.07c-4.38,8.13-11.75,4.51-18,5.42-.12-.47-.24-.94-.37-1.41,1.76-.31,3.56-1,5.27-.84C1217.82,254.35,1222.63,255.64,1226.22,250.76Zm-41.09-.63c11-4,21.77-8.71,33-12l.75,2.58-26.43,9.9c-22,8.26-44,16.59-66,24.75-2.56,1-5.44,1-8.16,1.51-.15-.52-.29-1-.43-1.55L1151,262.9C1162.36,258.63,1173.71,254.29,1185.13,250.13Zm-20.87,224.48c-3.84,20.63-7.66,41.08-11.47,61.53l-1.19.23c-6.24-9.43-12.06-19.18-18.83-28.21-6.22-8.31-10.22-16.58-6.41-27.08.69-1.89.48-4.09.71-6.47Zm-37-9.47h26.18l0,.19-26.06,1.77C1127.29,466.45,1127.25,465.8,1127.22,465.14Zm2.35-2.08c-1.22,0-3.07-1.82-3.49-3.15-1.61-5.17-2.88-10.46-4-15.75-.32-1.51-.33-3.58.45-4.77q30.62-46.72,61.47-93.28a21.45,21.45,0,0,1,2.28-2c-6.72,40.45-13.22,79.54-19.79,119.06C1153.54,463.2,1141.55,463.29,1129.57,463.06Zm-30.45-44.53c.34-22.06.82-44.12,1.27-66.18h1.2v69.34l-.92.82C1100.13,421.18,1099.1,419.84,1099.12,418.53Zm-.42,84.84c10.73,0,14.54-9,18.29-17.37-.88,6.77-3.32,12.89-8.49,17.58-6.2,5.62-14.16,5.5-20.3-.26-5.47-5.12-8.09-11.68-9-19.06C1083.18,493.28,1086.75,503.41,1098.7,503.37Zm6.77-79.89a4.48,4.48,0,0,1-1.56-3.05q-.06-51.84.08-103.69c0-.14.13-.27.55-1.1,24.21.85,47.43,7.13,70.77,16l-10.12,16.91.92.58,11.59-16.44,1.56,1.08-63.91,96.85C1111.86,428.13,1108.58,425.92,1105.47,423.48ZM1186,321l6.38-9.63c-2.21-2.25-3.63-1.75-5.22.67-5.17,7.86-5.24,7.82-14.05,4.66-22.21-8-45-13.36-69-14.55v-13.6c31.64,1.17,61.19,9.58,90.75,21.65l-7.58,11.56Zm-17-68.85a16,16,0,0,1-2,1.08c-19.48,7.2-38.89,14.6-58.5,21.4-4.25,1.47-9.22.82-13.86,1.15l-.18-1.33C1118.29,263.93,1142.85,255.58,1169,252.13Zm-75.67,69.3q0,40.51,0,81.05c0,5.75.26,11.5.18,17.25a5,5,0,0,1-1.58,3.48c-3.15,2.39-6.53,4.48-10.38,7.05l-63.69-96.47,1.55-1.2L1032,349.93l.75-.47-10.69-17.89c23-8.88,46.14-14.89,71.23-16.05ZM1092,521.59c.94.85,1.22,2.8,1.24,4.25.11,9.28,0,18.56,0,27.83v156.7l-1.22.35c-1.81-3.27-4.19-6.35-5.34-9.84-6.87-20.94-14.35-41.73-19.9-63-7-26.9-12.4-54.23-18.33-81.41a9.06,9.06,0,0,1,.87-6.25c8.81-13.74,17.87-27.3,26.87-40.91.33-.5.81-.9.53-.6C1082,513.05,1087.13,517.18,1092,521.59Zm-20.51-24.67q-12.6,19.26-25.37,38.42c-.23.36-.69.57-1.69,1.37-3.92-20.92-7.74-41.36-11.64-62.17h36.5c1.08,6.59,2.16,12.71,3,18.85A5.59,5.59,0,0,1,1071.5,496.92ZM1030.61,463q-9.81-58.86-19.57-117.5l1.2-.39c.89,1.24,1.83,2.45,2.67,3.72l36.17,54.84c7.57,11.46,15.26,22.85,22.63,34.45a9.4,9.4,0,0,1,.75,6.43c-1.29,6.07-3.08,12-4.79,18.45Zm62.49-174.54V302.1c-27,1.35-52.7,8-77.26,17.59-4.47-2.3-3.62-9.93-11.56-9.48,2.82,4.21,5,7.45,7.14,10.69l-1.35,1c-2.47-3.68-5-7.36-7.82-11.65C1031.57,298.09,1061.2,289.89,1093.1,288.44ZM978.45,239.16c1.45,0,3-.41,4.32.06,18.1,6.7,36.16,13.52,54.22,20.33.41.15.72.57,1.82,1.47-1.43.52-2.56,1.39-3.27,1.13-19.13-7.06-38.21-14.24-57.3-21.39Zm10.61,16.32c-6.44,0-13.59,3.28-18.18-4.66C975.55,258.34,983.62,251.45,989.06,255.48Zm-19.41-.59c7.4,6,15,1.8,22.58,1.15-5.67-5.11-9.42-12.87-19.79-11.53,7.18-3.45,15.52,1.62,22.81,13.11-6.66.75-13,1.86-19.25,1.93C973.82,259.57,971.6,257,969.65,254.89Zm58.72,24.61q-26.46-7.56-52.85-15.34c-1.41-.42-2.53-1.84-3.78-2.79.29-.4.58-.8.88-1.19q28.25,8.15,56.46,16.38c.75.22,1.27,1.25,1.85,2.05l.25.32h0c-.47.1-1,.3-1.45.45A2.6,2.6,0,0,1,1028.37,279.5Zm-25.73,17.65c14.88-4.73,29.8-9.36,44.72-14l.43,1.48-47.68,15.8C1001.52,298.54,1001.93,297.38,1002.64,297.15Zm-4,12.63c2.43,4.13,5.45,7.91,7.87,12.05,1.53,2.61,3.07,2.74,5.85,2.05q29.76-7.42,59.63-14.35c4.19-1,8.62-.81,12.94-1.18-24.64,5.25-48.69,11.8-72,22.95l11.39,17.3-1,.74L990.06,306.4C994.26,305.52,996.77,306.53,998.67,309.78Zm11.79,131.07c-3-15.49-6-31-8.85-46.48Q996,364,990.53,333.61c-.37-2.08.13-4.32.23-6.49l2-.12,19.72,113.56Zm9.79,18.26c-3.7-22.2-7.63-44.36-11.34-66.56-3.55-21.26-6.94-42.54-10.38-63.82-.19-1.17-.18-2.38-.26-3.56l1.6-.6c2.1,5,5.26,9.74,6.15,14.91,6.84,40,13.25,80,19.77,120.09.16.93.16,1.88.24,3.05C1022,464.05,1020.82,462.54,1020.25,459.11Zm18.65,88.71-2.17-.14q-6.82-36.36-13.66-72.72c3.68-1.39,5.31-.76,6,3,3.58,20.43,7.52,40.79,11,61.23C1040.56,542,1039.34,545,1038.9,547.82ZM1092,746.38c-2.18-3.77-5-7.3-6.43-11.33-6.61-18.67-14-37.16-18.94-56.29-9.42-36.86-17.38-74.1-25.71-111.23-.56-2.47.84-5.37,1.34-8.08l1.79.18c2.32,11.34,4.56,22.7,7,34,8.38,39.1,16.47,78.29,29.88,116.07,2.92,8.21,7.85,15.69,11.11,23.81,1.49,3.72,1.18,8.16,1.69,12.28Zm-6.62-234a58,58,0,0,1-10.16-18.72,69.86,69.86,0,0,1,.91-45.72,45.56,45.56,0,0,1,4.5-8.64c1.05-1.68,2.11-3.35,3.08-5.05a13.17,13.17,0,0,1-.85,2.62c-10.76,18.36-11.33,37.64-4.44,57.23A40.07,40.07,0,0,0,1087,507.7c6.75,7.22,15.83,6.95,22.92,0,7.43-7.29,10.49-16.73,11.88-26.66,2.2-15.59.4-30.6-8-44.37,1.16,1.17,2.74,2.14,3.4,3.54,10.19,21.77,10.2,43.55-.49,65.16a29.91,29.91,0,0,1-5.41,7.28C1103.36,520.9,1092.71,521.22,1085.37,512.37Zm16.23,81.7h-1.22c-.45-22.4-.94-44.79-1.27-67.19,0-1.39,1.19-2.8,2.49-3.56Zm2.15-67.52c0-3.24.88-5,3.82-6.72,4.78-2.82,9-6.59,13.6-10.08,8.11,12.3,17.65,26.68,27,41.17a6.62,6.62,0,0,1,.6,4.51c-9.15,43.85-17.88,87.82-32.39,130.33-2.26,6.64-5.32,13-8.16,19.45a11.18,11.18,0,0,1-4.44,5.06V705.7Q1103.82,616.12,1103.75,526.55Zm52.57,40.34c-9.71,47.47-19.38,95-34.38,141.14-3.83,11.8-9.47,23-14.37,34.45-.59,1.37-1.81,2.47-3.38,4.55-.78-7.2.06-12.42,3.35-18,9.2-15.54,14.12-32.93,18.31-50.32,9.08-37.77,17.41-75.72,26-113.6.41-1.83.8-3.66,1.2-5.5l1.51-.29C1155.22,561.87,1156.79,564.59,1156.32,566.89Zm4-18.79c-3.46-2.33-4.17-5-3.51-8.48,3.84-20.54,7.67-41.08,11.28-61.67.68-3.9,2.47-4.19,6-3.09C1169.48,499.22,1164.92,523.45,1160.29,548.1ZM1204.62,327l1.62-.11c.33,1.81,1.2,3.72.89,5.41q-9.75,52.57-19.76,105.11a36.81,36.81,0,0,1-1.23,3.95l-1.08-.22Zm-5.66-1.78c-.71,4.86-1.33,9.74-2.14,14.59q-10,59.63-20,119.26c-.56,3.37-1.73,5-6,3.5,2.09-12.5,4.19-24.77,6.18-37.06,4.71-29.06,9.19-58.15,14.22-87.15.82-4.76,4-9.12,6-13.67ZM1196,300l-47.12-15.61C1158.86,284.32,1194.65,296,1196,300Zm25.22-35.7q-30.75,9.06-61.59,17.82c-2,.55-4.21.07-6.33.07l-.18-1.34,71.28-20.65.79,1.31C1223.89,262.44,1222.71,263.85,1221.24,264.28Zm-19.79-7.72c5.07-4.63,9.61-9.31,14.76-13.16,1.61-1.21,4.87-.19,7.5.39-9.41-.66-13.15,7.1-18.81,12.22,7.45.53,15,5.14,22.1-1.51C1223.06,260.39,1213.29,261.18,1201.45,256.56Zm33.08-28.86c2.16,1.73,4.7,3.18,6.3,5.34.67.91-.64,3.29-1,5l-1.58,0c2.38-5.23-1-7.32-5.17-9Zm10,33.56-1.45-.45c.64-1.68,1.77-3.36,1.76-5s-1.15-3.36-1.8-5.05l.41-.84c1.19,1.18,3.45,2.43,3.37,3.51C1246.57,256.06,1245.31,258.64,1244.48,261.26Zm-8.11-14.19,18.21-6.56.42,1.11C1249,244,1244.18,249.69,1236.37,247.07Z" transform="translate(-37 -2.51)"/><path class="cls-3" d="M1108.26,705.21c2.84-6.43,5.9-12.81,8.16-19.45,14.51-42.51,23.24-86.48,32.39-130.33a6.62,6.62,0,0,0-.6-4.51c-9.39-14.49-18.93-28.87-27-41.17-4.61,3.49-8.82,7.26-13.6,10.08-2.94,1.74-3.83,3.48-3.82,6.72q.13,89.57.07,179.15v4.57A11.18,11.18,0,0,0,1108.26,705.21Z" transform="translate(-37 -2.51)"/><path class="cls-3" d="M1076.25,509.28c-9,13.61-18.06,27.17-26.87,40.91a9.06,9.06,0,0,0-.87,6.25c5.93,27.18,11.32,54.51,18.33,81.41,5.55,21.3,13,42.09,19.9,63,1.15,3.49,3.53,6.57,5.34,9.84l1.22-.35V553.67c0-9.27.06-18.55,0-27.83,0-1.45-.3-3.4-1.24-4.25-4.88-4.41-10-8.54-15.23-12.91C1077.06,508.38,1076.58,508.78,1076.25,509.28Z" transform="translate(-37 -2.51)"/><path class="cls-3" d="M1032.76,349.46l-.75.47-12.63-17.34-1.55,1.2,63.69,96.47c3.85-2.57,7.23-4.66,10.38-7.05a5,5,0,0,0,1.58-3.48c.08-5.75-.17-11.5-.18-17.25q0-40.53,0-81.05v-5.91c-25.09,1.16-48.23,7.17-71.23,16.05Z" transform="translate(-37 -2.51)"/><path class="cls-3" d="M1179.26,333.77l-1.56-1.08-11.59,16.44-.92-.58,10.12-16.91c-23.34-8.87-46.56-15.15-70.77-16-.42.83-.55,1-.55,1.1q-.09,51.84-.08,103.69a4.48,4.48,0,0,0,1.56,3.05c3.11,2.44,6.39,4.65,9.88,7.14Z" transform="translate(-37 -2.51)"/><path class="cls-3" d="M1186.26,344.14a21.45,21.45,0,0,0-2.28,2q-30.78,46.61-61.47,93.28c-.78,1.19-.77,3.26-.45,4.77,1.14,5.29,2.41,10.58,4,15.75.42,1.33,2.27,3.12,3.49,3.15,12,.23,24,.14,36.9.14C1173,423.68,1179.54,384.59,1186.26,344.14Z" transform="translate(-37 -2.51)"/><path class="cls-3" d="M1073.71,438.1c-7.37-11.6-15.06-23-22.63-34.45l-36.17-54.84c-.84-1.27-1.78-2.48-2.67-3.72l-1.2.39q9.78,58.69,19.57,117.5h39.06c1.71-6.42,3.5-12.38,4.79-18.45A9.4,9.4,0,0,0,1073.71,438.1Z" transform="translate(-37 -2.51)"/><path class="cls-3" d="M1126.36,481.08c-3.81,10.5.19,18.77,6.41,27.08,6.77,9,12.59,18.78,18.83,28.21l1.19-.23c3.81-20.45,7.63-40.9,11.47-61.53h-37.19C1126.84,477,1127.05,479.19,1126.36,481.08Z" transform="translate(-37 -2.51)"/><path class="cls-3" d="M1069.3,474.54h-36.5c3.9,20.81,7.72,41.25,11.64,62.17,1-.8,1.46-1,1.69-1.37q12.73-19.19,25.37-38.42a5.59,5.59,0,0,0,.83-3.53C1071.46,487.25,1070.38,481.13,1069.3,474.54Z" transform="translate(-37 -2.51)"/><path class="cls-3" d="M1194.8,310.18c-29.56-12.07-59.11-20.48-90.75-21.65v13.6c24.06,1.19,46.84,6.57,69,14.55,8.81,3.16,8.88,3.2,14.05-4.66,1.59-2.42,3-2.92,5.22-.67L1186,321l1.23.76Z" transform="translate(-37 -2.51)"/><path class="cls-3" d="M1010.07,321.9l1.35-1c-2.16-3.24-4.32-6.48-7.14-10.69,7.94-.45,7.09,7.18,11.56,9.48,24.56-9.54,50.26-16.24,77.26-17.59V288.44c-31.9,1.45-61.53,9.65-90.85,21.81C1005.12,314.54,1007.6,318.22,1010.07,321.9Z" transform="translate(-37 -2.51)"/><path class="cls-3" d="M1153.09,559.64c-.4,1.84-.79,3.67-1.2,5.5-8.63,37.88-17,75.83-26,113.6-4.19,17.39-9.11,34.78-18.31,50.32-3.29,5.55-4.13,10.77-3.35,18,1.57-2.08,2.79-3.18,3.38-4.55,4.9-11.44,10.54-22.65,14.37-34.45,15-46.16,24.67-93.67,34.38-141.14.47-2.3-1.1-5-1.72-7.54Z" transform="translate(-37 -2.51)"/><path class="cls-3" d="M1080.91,709.72c-13.41-37.78-21.5-77-29.88-116.07-2.43-11.32-4.67-22.68-7-34l-1.79-.18c-.5,2.71-1.9,5.61-1.34,8.08,8.33,37.13,16.29,74.37,25.71,111.23,4.89,19.13,12.33,37.62,18.94,56.29,1.43,4,4.25,7.56,6.43,11.33l1.72-.57c-.51-4.12-.2-8.56-1.69-12.28C1088.76,725.41,1083.83,717.93,1080.91,709.72Z" transform="translate(-37 -2.51)"/><path class="cls-3" d="M1026,462.62c-.08-1.17-.08-2.12-.24-3.05-6.52-40-12.93-80.1-19.77-120.09-.89-5.17-4-10-6.15-14.91l-1.6.6c.08,1.18.07,2.39.26,3.56,3.44,21.28,6.83,42.56,10.38,63.82,3.71,22.2,7.64,44.36,11.34,66.56C1020.82,462.54,1022,464.05,1026,462.62Z" transform="translate(-37 -2.51)"/><path class="cls-3" d="M1177.06,425.51c-2,12.29-4.09,24.56-6.18,37.06,4.25,1.52,5.42-.13,6-3.5q9.9-59.64,20-119.26c.81-4.85,1.43-9.73,2.14-14.59l-1.66-.53c-2.06,4.55-5.2,8.91-6,13.67C1186.25,367.36,1181.77,396.45,1177.06,425.51Z" transform="translate(-37 -2.51)"/><path class="cls-3" d="M1116.76,505.36c10.69-21.61,10.68-43.39.49-65.16-.66-1.4-2.24-2.37-3.4-3.54,8.35,13.77,10.15,28.78,8,44.37-1.39,9.93-4.45,19.37-11.88,26.66-7.09,7-16.17,7.23-22.92,0a40.07,40.07,0,0,1-8.59-13.61c-6.89-19.59-6.32-38.87,4.44-57.23a13.17,13.17,0,0,0,.85-2.62c-1,1.7-2,3.37-3.08,5.05a45.56,45.56,0,0,0-4.5,8.64,69.86,69.86,0,0,0-.91,45.72,58,58,0,0,0,10.16,18.72c7.34,8.85,18,8.53,26,.27A29.91,29.91,0,0,0,1116.76,505.36Z" transform="translate(-37 -2.51)"/><path class="cls-3" d="M1024.35,348.6,1013,331.3c23.31-11.15,47.36-17.7,72-22.95-4.32.37-8.75.22-12.94,1.18q-29.88,6.89-59.63,14.35c-2.78.69-4.32.56-5.85-2.05-2.42-4.14-5.44-7.92-7.87-12.05-1.9-3.25-4.41-4.26-8.61-3.38l33.26,42.94Z" transform="translate(-37 -2.51)"/><path class="cls-3" d="M1168.06,478c-3.61,20.59-7.44,41.13-11.28,61.67-.66,3.48,0,6.15,3.51,8.48,4.63-24.65,9.19-48.88,13.76-73.24C1170.53,473.76,1168.74,474.05,1168.06,478Z" transform="translate(-37 -2.51)"/><path class="cls-3" d="M1029.05,478c-.67-3.8-2.3-4.43-6-3q6.82,36.36,13.66,72.72l2.17.14c.44-2.87,1.66-5.87,1.19-8.59C1036.57,518.79,1032.63,498.43,1029.05,478Z" transform="translate(-37 -2.51)"/><path class="cls-3" d="M905.09,355.06l.31.87,80.71-23.43c-1.14-2.48-2-4.31-3.08-6.68Z" transform="translate(-37 -2.51)"/><path class="cls-3" d="M1108.43,274.61c19.61-6.8,39-14.2,58.5-21.4a16,16,0,0,0,2-1.08c-26.12,3.45-50.68,11.8-74.58,22.3l.18,1.33C1099.21,275.43,1104.18,276.08,1108.43,274.61Z" transform="translate(-37 -2.51)"/><path class="cls-3" d="M1292.09,355.07l-78-29.24c-1.07,2.38-1.9,4.21-3,6.69l80.8,23.42C1291.91,355.65,1292,355.36,1292.09,355.07Z" transform="translate(-37 -2.51)"/><path class="cls-3" d="M990.76,327.12c-.1,2.17-.6,4.41-.23,6.49q5.41,30.4,11.08,60.76c2.89,15.5,5.9,31,8.85,46.48l2-.29L992.77,327Z" transform="translate(-37 -2.51)"/><path class="cls-3" d="M1117.81,275.36c.14.52.28,1,.43,1.55,2.72-.48,5.6-.56,8.16-1.51,22-8.16,44-16.49,66-24.75l26.43-9.9-.75-2.58c-11.22,3.25-22,8-33,12-11.42,4.16-22.77,8.5-34.15,12.77Z" transform="translate(-37 -2.51)"/><path class="cls-3" d="M1186.14,441.36a36.81,36.81,0,0,0,1.23-3.95q9.95-52.55,19.76-105.11c.31-1.69-.56-3.6-.89-5.41l-1.62.11-19.56,114.14Z" transform="translate(-37 -2.51)"/><path class="cls-3" d="M1153.14,280.83l.18,1.34c2.12,0,4.37.48,6.33-.07q30.84-8.75,61.59-17.82c1.47-.43,2.65-1.84,4-2.79l-.79-1.31Z" transform="translate(-37 -2.51)"/><path class="cls-3" d="M1031.18,278.93h0l-.25-.32c-.58-.8-1.1-1.83-1.85-2.05q-28.2-8.3-56.46-16.38c-.3.39-.59.79-.88,1.19,1.25.95,2.37,2.37,3.78,2.79q26.38,7.81,52.85,15.34a2.6,2.6,0,0,0,1.36-.12C1030.21,279.23,1030.71,279,1031.18,278.93Z" transform="translate(-37 -2.51)"/><path class="cls-3" d="M1038.81,261c-1.1-.9-1.41-1.32-1.82-1.47-18.06-6.81-36.12-13.63-54.22-20.33-1.27-.47-2.87-.06-4.32-.06l-.21,1.6c19.09,7.15,38.17,14.33,57.3,21.39C1036.25,262.41,1037.38,261.54,1038.81,261Z" transform="translate(-37 -2.51)"/><path class="cls-3" d="M1099.11,526.87c.33,22.4.82,44.79,1.27,67.19h1.22V523.31C1100.3,524.07,1099.08,525.48,1099.11,526.87Z" transform="translate(-37 -2.51)"/><path class="cls-3" d="M1101.59,352.34h-1.2c-.45,22.06-.93,44.12-1.27,66.18,0,1.31,1,2.65,1.55,4l.92-.82Z" transform="translate(-37 -2.51)"/><path class="cls-3" d="M1047.36,283.13c-14.92,4.66-29.84,9.29-44.72,14-.71.23-1.12,1.39-2.53,3.26l47.68-15.8Z" transform="translate(-37 -2.51)"/><path class="cls-3" d="M1196,300c-1.37-4-37.16-15.66-47.12-15.61Z" transform="translate(-37 -2.51)"/><path class="cls-3" d="M995.25,257.62c-7.29-11.49-15.63-16.56-22.81-13.11,10.37-1.34,14.12,6.42,19.79,11.53-7.58.65-15.18,4.85-22.58-1.15,2,2.11,4.17,4.68,6.35,4.66C982.3,259.48,988.59,258.37,995.25,257.62Z" transform="translate(-37 -2.51)"/><path class="cls-3" d="M1204.9,256c5.66-5.12,9.4-12.88,18.81-12.22-2.63-.58-5.89-1.6-7.5-.39-5.15,3.85-9.69,8.53-14.76,13.16,11.84,4.62,21.61,3.83,25.55-2.06C1219.92,261.15,1212.35,256.54,1204.9,256Z" transform="translate(-37 -2.51)"/><path class="cls-3" d="M1153.4,465.14h-26.18c0,.66.07,1.31.1,2l26.06-1.77Z" transform="translate(-37 -2.51)"/><path class="cls-3" d="M1236.37,247.07c7.81,2.62,12.58-3.08,18.63-5.45l-.42-1.11Z" transform="translate(-37 -2.51)"/><path class="cls-3" d="M941.83,241.74c6.32,1.72,11,8.25,18.9,5.33l-18.25-6.56C942.27,240.92,942.05,241.33,941.83,241.74Z" transform="translate(-37 -2.51)"/><path class="cls-3" d="M1213.1,253.93c-1.71-.15-3.51.53-5.27.84.13.47.25.94.37,1.41,6.27-.91,13.64,2.71,18-5.42C1222.63,255.64,1217.82,254.35,1213.1,253.93Z" transform="translate(-37 -2.51)"/><path class="cls-3" d="M989.06,255.48c-5.44-4-13.51,2.86-18.18-4.66C975.47,258.76,982.62,255.48,989.06,255.48Z" transform="translate(-37 -2.51)"/><path class="cls-3" d="M981.08,201.55l-1-.09Q979,211.26,978,221.07l1.18.12Q980.11,211.36,981.08,201.55Z" transform="translate(-37 -2.51)"/><path class="cls-3" d="M1217,202.05l-1,.1q1.07,9.48,2.14,18.95c.88-.55,1-1,1-1.48Q1218,210.83,1217,202.05Z" transform="translate(-37 -2.51)"/><path class="cls-3" d="M1238.2,238.1l1.58,0c.41-1.72,1.72-4.1,1-5-1.6-2.16-4.14-3.61-6.3-5.34l-1.5,1.41C1237.19,230.78,1240.58,232.87,1238.2,238.1Z" transform="translate(-37 -2.51)"/><path class="cls-3" d="M958.88,238.4c-2.86-5.58,1.15-7.36,4.57-9.55C956.06,230,954.38,233.29,958.88,238.4Z" transform="translate(-37 -2.51)"/><path class="cls-3" d="M954.1,260.83c-2.21-3.53-3.22-6.95,1.14-10.69C948.92,252.23,948.72,256.26,954.1,260.83Z" transform="translate(-37 -2.51)"/><path class="cls-3" d="M1243.4,249.89l-.41.84c.65,1.69,1.79,3.37,1.8,5.05s-1.12,3.35-1.76,5l1.45.45c.83-2.62,2.09-5.2,2.29-7.86C1246.85,252.32,1244.59,251.07,1243.4,249.89Z" transform="translate(-37 -2.51)"/><path class="cls-3" d="M1088.2,503.32c6.14,5.76,14.1,5.88,20.3.26,5.17-4.69,7.61-10.81,8.49-17.58-3.75,8.41-7.56,17.33-18.29,17.37-12,0-15.52-10.09-19.52-19.11C1080.11,491.64,1082.73,498.2,1088.2,503.32Z" transform="translate(-37 -2.51)"/><path class="cls-1" d="M393.29,261.87l-2-1.48h0Z" transform="translate(-37 -2.51)"/><path class="cls-1" d="M262.4,434.08c-.4-4.61-2.91-8-6.55-8.8,3.64.82,6.15,4.19,6.54,8.81v0Z" transform="translate(-37 -2.51)"/><path class="cls-4" d="M43.21,367.86c17.91-2.41,36.12-3.6,53.62-7.77,18.43-4.39,36.18-11.64,54.23-17.64,1.9-.63,3.8-1.24,5.92-1.92.38,1.44.69,2.34.85,3.26,3.62,20.32,7.11,40.67,10.85,61,14.47,78.53,29.66,156.91,49,234.41,8.1,32.44,16.42,64.87,29.47,95.78a116.69,116.69,0,0,0,12.09,21.7c4.95,7,10.47,7,15.59.14a96.59,96.59,0,0,0,10.8-18.59c12.43-28.22,20.39-57.93,28-87.7,23.84-93.55,41.63-188.37,58.67-283.34,1.57-8.78,3.12-17.55,4.87-27.37C415.62,356.17,454.7,367,497.3,367.83c-35.38-25.34-74.19-39.87-114.81-50,1.39-5.12,2.64-9.08,3.52-13.13,2.77-12.79.07-16.78-12.83-19.29-.79-.15-1.6-.16-2.38-.33q-10-2.1-19.93-4.24c0-.55,0-1.1,0-1.64,16-3.86,31.26-10.39,47.42-12.48,2.71,7.28,4.94,13.79,7.55,20.14s5.47,12.53,10.64,17.4a145.69,145.69,0,0,0-.15-17.39c-.08-1.74-.8-4,0-5.13,4-5.37,1.59-10.39-.32-15.45-1.62-4.3,1.74-12.95,5.91-14.71q24.54-10.35,49.1-20.67c1.27-.54,2.6-.92,2.64-.94,2.7,2.77,4.54,5.25,7,6.81.77.49,3.11-1.48,4.89-2.4-1.74-2.09-2.82-3.38-3.43-4.1,5-3.61,9.6-6.57,13.68-10.14,1.1-1,1.36-4.25.56-5.63a7.46,7.46,0,0,0-5.29-3.15c-4.74-.24-9.52.32-14.8.58.34-1.61.68-3.17,1.23-5.78-2.16.31-5,.08-5.35.88-1.19,3-1.54,6.29-2.36,10.16l-53,13.09c-5.66,1.4-12.4-3.38-14-8.94-1.16-4-3.45-7.65-5.66-11.2-1.33-2.14-3.79-3.57-5.16-5.69-3-4.61-5.59-9.46-8.35-14.21l-1.27.31a22.28,22.28,0,0,0-.39,4.91c1.39,9.63,2.57,19.32,4.54,28.84,1.83,8.81,2.13,8.93-6.44,12.39-.89.36-1.8.69-2.7,1q-20.67,7.72-41.36,15.43c-3.41,1.27-6.86,2.44-9.64,3.43L308,233.8c8.63-5.78,6.83-12.9,1-20.34,17.17,2,17.17,2,23.06-8.8l-50-36a59.66,59.66,0,0,1,13.81,7.21c2.34,1.59,4.12,1.53,6.48.09,4.69-2.86,9.58-5.38,14.38-8.05l.47.76L304,180.15c2.91,3.67,5.62,3.72,9,1.5,4-2.6,8.27-4.71,12.43-7l.48.84-12.43,11c6,5.23,9-.87,12.85-2.63,4.34-2,8.25-4.94,12.35-7.47l.53.88-17.1,14.82,15.77,9.73,1.48-.73c-.51-2.05-.6-4.34-1.61-6.11-1.78-3.14-1.42-5.08,1.29-7.73,5-4.9,9.47-10.39,14-15.76,2.8-3.33,3-7,.33-10.58-5.72-7.69-11.33-15.48-17.34-22.94-3.5-4.34-8.16-7.76-11.48-12.21-10.46-14-23-25.29-39.46-31.81a4.78,4.78,0,0,1-2.5-3.66c1-16.59-3.91-31.57-11.76-45.87-4.73-8.62-10.8-16.66-11.89-26.95l-1.38-.3c-1.71,3.77-3.42,7.54-5.2,11.48-.48-.53-1.14-1.18-1.7-1.91C241.28,14.56,228.79,7.18,213.88,4.1s-29.38-2.21-42.17,7.29c-5.81,4.32-9.4,10.14-11.16,18.59,7.65-8.74,15.94-11.5,25.8-8.88-14.07,2.36-18.53,5.79-19.35,15.34,8.32-6.59,12.12-7.24,16.15-2.59-1.32.63-2.61,1.21-3.87,1.86-9.3,4.81-14.08,12.8-12.61,23.19a38,38,0,0,0,5.26,14.7c4.71,7.38,10.48,14.1,15.92,21,5.63,7.16,11.48,14.17,13.09,23.76a25.43,25.43,0,0,0,2.27-6.19c1.7-8.27-.23-16.2-2.5-24.09-1.59-5.53-3.38-11-4.51-16.65-1-4.94,1.11-7.76,6-7.72,5.15.05,10.3,1.15,15.41,1.78L208.07,74l.93,1c18-4.71,37.85,1.47,44.16,13.74-14.85,3-22.69,7.9-28.27,20a74,74,0,0,0-6.19,21.48c-2.23,18,2.62,34.91,9.76,51.25,1.9,4.36,4,8.61,5.88,12.48-5.11,1.34-10.08,2.32-14.78,4-1.57.57-3.38,3.07-3.34,4.64s2,4,3.61,4.36c4.48,1.17,5.48,4.39,6.21,8.13.53,2.79,1.17,5.56,1.82,8.56-15.37,3.82-27.59,12.49-38.25,23.72a4.28,4.28,0,0,1-3.66,1c-12-4.46-23.89-9.13-35.82-13.73-3.57-1.38-4.15-3.36-3.27-7.35,2.31-10.43,3.73-21,5.36-31.62.26-1.66-.22-3.43-.35-5.16l-1.34-.18-8.35,14.29c-.89,1.51-1.49,3.93-2.76,4.36-6.67,2.24-7.12,8-8.29,13.43-.84,3.89-8.64,9-12.53,8.07q-25.87-6.34-51.73-12.72c-1.33-.33-2.61-.86-3.91-1.3l1.22-.63c-.59-2.92-.78-6-2-8.67-.41-.91-3.36-.66-5.34-1,.35,2.72.57,4.35.7,5.34-7.38.88-14.35-2.79-20.55,2.45v4.8L51.9,230.5l-3.23,3.93c1.63.91,3.81,2.83,4.49,2.4,2.57-1.63,4.64-4,7.66-6.85l34.26,14.41c4,1.68,7.82,4,12,4.91,7.3,1.64,10.27,6.64,11.75,13.11.28,1.21-.34,2.7-.77,4-1.75,5.12-4.15,10.08-.18,15.44.89,1.2,0,3.7,0,5.59-.27,5.54-.57,11.07-.86,16.6l1.16.52c1.19-1.48,2.77-2.79,3.51-4.47,4.32-9.77,8.63-19.56,12.53-29.5,1.17-3,2.43-4.21,5.48-3.38L183.06,279l.12,1.46c-5.64,1.51-11.28,3-16.93,4.52a14.57,14.57,0,0,1-2.39.1c-14.62,1.09-18.65,6.39-15.5,20.59.83,3.72,2,7.36,3.16,11.43-1.28.52-2.52,1.13-3.82,1.54-8.09,2.52-16.12,5.31-24.31,7.43C92.76,334,65.6,349.18,39.13,365.85a17.07,17.07,0,0,1-2.13,1v1A40.35,40.35,0,0,0,43.21,367.86Zm336.47-43,79,29.6c-.1.34-.21.68-.32,1l-79.84-23.14C378.91,329.75,379.24,327.63,379.68,324.85Zm32.59-63.55c.65-3.69,3.15-7.27-.54-11.07,1.24.92,3.58,1.94,3.51,2.73A19.84,19.84,0,0,1,412.27,261.3Zm12.6-21.3c-6.37,3.2-11.46,9.81-20,7.2ZM403,228c2.12,1.59,4.71,2.86,6.16,4.93.74,1.06-.56,3.56-.94,5.41l-1.52-.16c2.31-5.08-.8-7.18-4.89-8.75C402.23,228.93,402.63,228.45,403,228ZM122.92,260.85l-1.64.58c-.87-2.68-2.14-5.31-2.42-8.05-.09-1,2.21-2.19,3.41-3.29l1,.8C119.11,254.07,120.72,257.45,122.92,260.85ZM109.46,240l20.68,7.44C123.66,249.26,120.54,248.15,109.46,240Zm18-2.06-1.25.09c-.56-1.6-2.06-3.89-1.49-4.67,1.6-2.2,4.05-3.78,6.17-5.61l1.35,1.44C128.71,231.09,124.91,232.8,127.46,238Zm77.82,300.4c-4.56-24.25-9.12-48.5-13.75-73.14h35.32c-.39,3.17,3.52,6,.15,9.48-.56.59.38,3.65,1.47,4.59,3.51,3.05,7.42,5.64,11.46,8.61l-33.5,50.73Zm24.33-95.82,8.09-5.05-1-1.62c4.57-1.86,6.54-.65,8.44,4.94l-8.25-.47-.15,1,6.57,1.53-2.92,1.31,7.89,2.37c-7.78-1-14.83-.68-18.66,8.17l-1.36-1.31c1.41-2.55,2.82-5.09,4.06-7.36Zm2.67,14.6c3.67-9.44,18.61-9.31,28,0Zm27.56,5.15c-8.24,9.2-24,9.32-27.48,0ZM229.42,465c3.75,7.66,10.63,7.49,17.87,7.66l-11,5.79h10.19a86.74,86.74,0,0,1-6.61,5.93c-.55.4-1.93-.32-2.93-.53l.8-2-8.2-5.3,2.84-3.32c-1.17-2-2.68-4.48-4.19-7Zm32.42,266.28v5.19l-1,.54c-1.52-2.27-3.55-4.34-4.48-6.82C250,713.49,242.52,697,238.08,679.8c-10.41-40.41-19.34-81.2-28.74-121.87a7.59,7.59,0,0,1,.85-5.35c13.2-20.24,26.56-40.37,39.9-60.52a14.77,14.77,0,0,1,1.74-1.86c0,7.33,0,7.33,5.15,7,6.13,6,4.85,13.62,4.85,20.89Q261.86,624.71,261.84,731.31Zm10.41-234.77a10.39,10.39,0,0,1-3.15,5.64c-.83.71-3.68.17-4.71-.78a7.74,7.74,0,0,1-2.46-5.28c.13-3.08,1.29-6.12,2.14-9.67-3.12,3.32-5.78,6.16-8.45,9l-1.44-1.07,4.37-9.94L252.11,488l-1.12-.87q3-6.43,6.05-12.86l1.45.52-2.3,7.22.84.36,5.61-12.53,1.12.22q-1.87,8.7-3.73,17.4l1.11.33q2-5.85,3.89-11.72l.55.08v9.84h.3q1.1-7.94,2.17-15.88l1.34,0,4.08,13.06.8-.19q-1.32-6-2.65-12.07c3.63,5.61,11.47,8.28,10.68,17.08l-5.68-2.7c1.17,3.05,2.29,5.95,3.4,8.85l-.76.89-7.83-4.13C271.71,492.53,272.61,494.65,272.25,496.54ZM290.7,443l6.85-1.63,0-.57H289c1-4.26,3.39-6.53,8.66-5.62l-1.21,2.32,8.13,5.05c-.94,1.24-1.89,2.48-2.69,3.51l4.19,7.3c-.46.52-.91,1-1.37,1.55-3.75-9.57-11.52-8-20.14-7.87l9.58-3Zm14,33.59-8.2,5.39s-.09,2.5-.31,2.51c-4,.21-6.29-1.91-7-5.94H298L287,472.68c7.23-.07,14.09-.06,17.49-7.68,1.17,3.62,1.17,3.62-2.95,8.19Zm-31-14.2h28.12c-.91,4.24-4.14,5.34-7.24,6C286.88,470.1,280.17,468,273.64,462.4Zm18.17-12c5.3.41,8.23,2.35,10.28,7.08H273C278.72,452.39,284.66,449.87,291.81,450.43Zm32.66,108.89c-9.29,45.95-18.88,91.85-33,136.61-3.41,10.8-7.95,21.25-12.26,31.75a27.87,27.87,0,0,1-6.52,9.06c-.11-1.32-.31-2.63-.31-4q0-112.38.17-224.75c0-3.55,2.43-7.09,3.83-10.89,6,.4,6,.4,6-7.54,1.36,1.92,2.27,3.14,3.11,4.41,12.54,19,25.15,37.87,37.46,57A12.32,12.32,0,0,1,324.47,559.32Zm4.16-19.39L294.31,488c4.33-3.34,8.27-6.17,11.93-9.34.88-.76,1.55-3.33,1.05-3.85-3.26-3.41.16-6.33.06-9.63h35.31C338,489.83,333.48,514.1,328.63,539.93Zm39-224c-1.44,9.21-2.84,18.43-4.33,27.64q-6.87,42.39-13.81,84.75c-1.25,7.56-2.75,15.09-4.39,22.57-.25,1.17-1.82,2.9-2.8,2.92-11.49.2-23,.13-34.69.13-.49-3.3-3-5.82-.48-9.37.63-.88-2-4.4-3.55-6.38-1.24-1.61-2.9-3.33-4.73-3.94-2.93-1-6.14-1-9.78-1.57l77.43-117.2Zm27.17-65c-4.35,7.79-11.43,4.75-17.67,5.24-.08-.49-.16-1-.25-1.49,1.71-.23,3.47-.84,5.12-.64C386.61,254.63,391.18,255.38,394.76,251Zm-8.29-29.78q-1-9.78-1.91-19.56l.93-.09,2.22,19.72Zm6,22.51c-9.52-.53-13.34,7.28-19,12.6,7.46,0,15.1,5.27,22.44-1.23q-2.19,2.59-4.4,5.18h0l-.15.15,2,1.48c-1.23.88-2.34,2.18-3.71,2.59-14.5,4.32-29,8.57-43.61,12.65-2,.55-4.19.08-6.52-1.07,1.35-.48,2.69-1,4.07-1.43q22-6.39,44.08-12.75a36.77,36.77,0,0,0,3.85-1.6l0,0-22.33-2.72c5.8-5.35,10.2-10,15.25-13.76C386.21,242.39,389.59,243.11,392.47,243.68Zm-49.34,10.49c12.69-4.76,25.37-9.56,38.1-14.22a10.17,10.17,0,0,1,6,0c-19.48,8.35-39.18,15.75-58.92,23l-.81-2.91Zm-70.75,28c0-.77.13-1.54.26-2.93,31.65,1.28,61.26,9.6,90.36,21.58-.68,1.32-1.09,2.33-1.68,3.23q-18.44,28.37-36.91,56.7-16.31,24.87-32.8,49.61c-2.3,3.46-4.43,7.16-7.37,10-1.68,1.63-4.82,1.76-6.63,2.35-7.86-9.16-4.93-19-5.13-28.21-.42-19.68-.42-39.37-.43-59.06C272,317.67,272.25,299.91,272.38,282.15ZM263,418.91a7,7,0,0,1,5.95-1.86c2.89.89,4.33,3.52,3.28,6.91a39.5,39.5,0,0,0-.86,4.48l9.06-4.64c-1.42,3.84-2.43,6.56-3.67,9.93l6.48-3c-1.26,4-2.18,6.84-3.44,10.81-.68-1.48-.89-1.95-1.26-2.77l-5.87,10-1-.44q1.64-7,3.25-14.08l-.67-.21-4.82,15.11-1.19.07c-.81-5.36-1.63-10.72-2.57-16.91v11.27l-.77.13q-1.17-4.71-2.36-9.42l-.1.1h0a1,1,0,0,1,0-.17s0-.09,0-.14l-1.71-2.44-.65.2,3.69,17.39-1,.27L256.47,436l-.72.32c.83,2.59,1.67,5.17,2.51,7.76l-1.34.56-5.92-12,.88-1.06,6.44,3.05-4.13-9.54a7.47,7.47,0,0,1,1.66.19c3.64.82,6.15,4.19,6.55,8.8-.09-3.05-.25-6.11-.2-9.15C262.24,422.86,261.89,420.17,263,418.91Zm-1.17-139.76v6.15c0,41.88.09,83.76-.18,125.64,0,3.72-2.42,7.42-3.66,11-5.5,1.5-8.19-1.11-11-5.38-24.22-37-48.69-73.92-73.08-110.85-.94-1.44-1.83-2.91-3-4.78C200.2,288.79,229.83,280.61,261.84,279.15ZM251,266.33c-7.76,2-14.1,1.55-20.64-1.16-11-4.57-22.36-8.42-33.44-13C215.16,254.48,232.69,259.5,251,266.33Zm-104.07-27c1.56,0,3.29-.45,4.66.06q38.4,14.25,76.71,28.73c.24.09.38.45,1.28,1.59-2.74-.14-5,.27-6.8-.41q-37.27-13.81-74.46-27.91a8.26,8.26,0,0,1-1.49-1Zm1.77-37.73,1,.1q-1,9.84-2,19.69l-1.15-.12Q147.58,211.46,148.68,201.63Zm8.56,53.92c-6.41.19-13.49,3.14-17.93-4.62C144,258.27,151.76,251.87,157.24,255.55Zm-19-.56c7.37,5.92,14.92,2,22.48,1.1-5.65-5.13-9.42-12.88-19.91-11.39,7.38-3.57,15.1,1.06,23.08,13.06-6.87.72-13.3,1.78-19.75,1.86C142.13,259.65,140.08,257.06,138.25,255Zm6.24,9.43c-1.52-.45-2.76-1.82-4.13-2.76l.77-1.37,53.59,15.49c-.06.47-.11,1-.17,1.42-2.11,0-4.36.47-6.32-.08Q166.3,271,144.49,264.42Zm27.13,23.28c14.82-4.4,29.68-8.69,44.53-13,.26-.07.6.15,1.16.31l-47.17,15.62-.69-.84C170.17,289.08,170.76,288,171.62,287.7Zm-4,27.84L245.88,434c-2.7-.56-5.33-2-6.49-1.21a139.82,139.82,0,0,0-12.49,10.12c-.32.27-.2,1.25-.06,1.84,1,4.5,1,4.49-.46,9H189.32q-11.5-68.89-23-137.77Zm-8.55,2.32,2.31,0q9.72,56.63,19.43,113.26l-1.49.29c-1.55-7.44-3.23-14.85-4.62-22.32q-7.89-42.18-15.57-84.4C158.7,322.51,159.05,320.15,159.05,317.86Zm-4.53,7c.46,2.78.78,4.78,1.22,7.47L73.41,356.19c-.09-.27-.19-.55-.29-.83Z" transform="translate(-37 -2.51)"/><path class="cls-3" d="M285.44,494c-.84-1.27-1.75-2.49-3.11-4.41,0,7.94,0,7.94-6,7.54-1.4,3.8-3.82,7.34-3.83,10.89q-.34,112.37-.17,224.75c0,1.32.2,2.63.31,4a27.87,27.87,0,0,0,6.52-9.06c4.31-10.5,8.85-20.95,12.26-31.75,14.14-44.76,23.73-90.66,33-136.61A12.32,12.32,0,0,0,322.9,551C310.59,531.89,298,513,285.44,494Z" transform="translate(-37 -2.51)"/><path class="cls-3" d="M257,497.22c-5.15.31-5.15.31-5.15-7a14.77,14.77,0,0,0-1.74,1.86c-13.34,20.15-26.7,40.28-39.9,60.52a7.59,7.59,0,0,0-.85,5.35c9.4,40.67,18.33,81.46,28.74,121.87,4.44,17.23,11.95,33.69,18.26,50.42.93,2.48,3,4.55,4.48,6.82l1-.54v-5.19q0-106.6,0-213.2C261.83,510.84,263.11,503.27,257,497.22Z" transform="translate(-37 -2.51)"/><path class="cls-3" d="M277.61,422.69c1.81-.59,4.95-.72,6.63-2.35,2.94-2.84,5.07-6.54,7.37-10q16.45-24.76,32.8-49.61,18.54-28.29,36.91-56.7c.59-.9,1-1.91,1.68-3.23-29.1-12-58.71-20.3-90.36-21.58-.13,1.39-.26,2.16-.26,2.93-.13,17.76-.34,35.52-.33,53.27,0,19.69,0,39.38.43,59.06C272.68,403.71,269.75,413.53,277.61,422.69Z" transform="translate(-37 -2.51)"/><path class="cls-3" d="M173.94,305.69C198.33,342.62,222.8,379.5,247,416.54c2.79,4.27,5.48,6.88,11,5.38,1.24-3.56,3.64-7.26,3.66-11,.27-41.88.18-83.76.18-125.64v-6.15c-32,1.46-61.64,9.64-90.91,21.76C172.11,302.78,173,304.25,173.94,305.69Zm4.47-3.23c7.57,12.17,14.92,24.48,22.31,36.76a12.73,12.73,0,0,1,.44,2.56l-27.68-39.64c.23-.47.46-.95.68-1.42C175.62,301.28,177.76,301.4,178.41,302.46Z" transform="translate(-37 -2.51)"/><path class="cls-3" d="M298.81,434.27c1.83.61,3.49,2.33,4.73,3.94,1.55,2,4.18,5.5,3.55,6.38-2.53,3.55,0,6.07.48,9.37,11.7,0,23.2.07,34.69-.13,1,0,2.55-1.75,2.8-2.92,1.64-7.48,3.14-15,4.39-22.57q7-42.36,13.81-84.75c1.49-9.21,2.89-18.43,4.33-27.64l-1.13-.45L289,432.7C292.67,433.23,295.88,433.31,298.81,434.27Z" transform="translate(-37 -2.51)"/><path class="cls-3" d="M226.38,453.76c1.5-4.5,1.49-4.49.46-9-.14-.59-.26-1.57.06-1.84a139.82,139.82,0,0,1,12.49-10.12c1.16-.77,3.79.65,6.49,1.21L167.6,315.54l-1.28.45q11.51,68.88,23,137.77Z" transform="translate(-37 -2.51)"/><path class="cls-3" d="M228.47,479.31c-1.09-.94-2-4-1.47-4.59,3.37-3.52-.54-6.31-.15-9.48H191.53c4.63,24.64,9.19,48.89,13.75,73.14l1.15.27,33.5-50.73C235.89,485,232,482.36,228.47,479.31Z" transform="translate(-37 -2.51)"/><path class="cls-3" d="M307.29,474.82c.5.52-.17,3.09-1.05,3.85-3.66,3.17-7.6,6-11.93,9.34l34.32,51.92c4.85-25.83,9.41-50.1,14-74.74H307.35C307.45,468.49,304,471.41,307.29,474.82Z" transform="translate(-37 -2.51)"/><path class="cls-3" d="M279.26,495l.76-.89c-1.11-2.9-2.23-5.8-3.4-8.85l5.68,2.7c.79-8.8-7.05-11.47-10.68-17.08q1.32,6,2.65,12.07l-.8.19-4.08-13.06-1.34,0Q267,478,265.88,485.93h-.3V476.1L265,476q-1.93,5.87-3.89,11.72l-1.11-.33q1.86-8.7,3.73-17.4l-1.12-.22L257,482.32l-.84-.36,2.3-7.22-1.45-.52q-3,6.43-6.05,12.86l1.12.87,6.44-3.52-4.37,9.94,1.44,1.07c2.67-2.83,5.33-5.67,8.45-9-.85,3.55-2,6.59-2.14,9.67a7.74,7.74,0,0,0,2.46,5.28c1,1,3.88,1.49,4.71.78a10.39,10.39,0,0,0,3.15-5.64c.36-1.89-.54-4-.82-5.68Z" transform="translate(-37 -2.51)"/><path class="cls-3" d="M262.4,434.08v0c0,.05,0,.1,0,.14a1,1,0,0,0,0,.17h0l.1-.1q1.19,4.71,2.36,9.42l.77-.13V432.31c.94,6.19,1.76,11.55,2.57,16.91l1.19-.07L274.23,434l.67.21q-1.62,7-3.25,14.08l1,.44,5.87-10c.37.82.58,1.29,1.26,2.77,1.26-4,2.18-6.84,3.44-10.81l-6.48,3c1.24-3.37,2.25-6.09,3.67-9.93l-9.06,4.64a39.5,39.5,0,0,1,.86-4.48c1.05-3.39-.39-6-3.28-6.91a7,7,0,0,0-5.95,1.86c-1.12,1.26-.77,3.95-.81,6C262.15,428,262.31,431,262.4,434.08Z" transform="translate(-37 -2.51)"/><path class="cls-3" d="M155.74,332.3c-.44-2.69-.76-4.69-1.22-7.47l-81.4,30.53c.1.28.2.56.29.83Z" transform="translate(-37 -2.51)"/><path class="cls-3" d="M458.67,354.45l-79-29.6c-.44,2.78-.77,4.9-1.17,7.48l79.84,23.14C458.46,355.13,458.57,354.79,458.67,354.45Z" transform="translate(-37 -2.51)"/><path class="cls-3" d="M174.68,409.13c1.39,7.47,3.07,14.88,4.62,22.32l1.49-.29q-9.72-56.62-19.43-113.26l-2.31,0c0,2.29-.35,4.65.06,6.87Q166.77,367,174.68,409.13Z" transform="translate(-37 -2.51)"/><path class="cls-3" d="M222.76,269.33c1.83.68,4.06.27,6.8.41-.9-1.14-1-1.5-1.28-1.59q-38.34-14.41-76.71-28.73c-1.37-.51-3.1-.06-4.66-.06l-.1,1.06a8.26,8.26,0,0,0,1.49,1Q185.52,255.43,222.76,269.33Z" transform="translate(-37 -2.51)"/><path class="cls-3" d="M251,266.33c-18.29-6.83-35.82-11.85-54.08-14.16,11.08,4.58,22.41,8.43,33.44,13C236.88,267.88,243.22,268.31,251,266.33Z" transform="translate(-37 -2.51)"/><path class="cls-3" d="M387.27,239.93a10.17,10.17,0,0,0-6,0c-12.73,4.66-25.41,9.46-38.1,14.22L327.54,260l.81,2.91C348.09,255.68,367.79,248.28,387.27,239.93Z" transform="translate(-37 -2.51)"/><path class="cls-3" d="M387.6,261.86q-22,6.4-44.08,12.75c-1.38.4-2.72.95-4.07,1.43,2.33,1.15,4.57,1.62,6.52,1.07,14.58-4.08,29.11-8.33,43.61-12.65,1.37-.41,2.48-1.71,3.71-2.59l-2-1.48h0l.15-.15h0l0,0A36.77,36.77,0,0,1,387.6,261.86Z" transform="translate(-37 -2.51)"/><path class="cls-3" d="M194.55,277.2c.06-.47.11-.95.17-1.42l-53.59-15.49-.77,1.37c1.37.94,2.61,2.31,4.13,2.76q21.82,6.52,43.74,12.7C190.19,277.67,192.44,277.2,194.55,277.2Z" transform="translate(-37 -2.51)"/><path class="cls-3" d="M302.09,457.51c-2-4.73-5-6.67-10.28-7.08-7.15-.56-13.09,2-18.83,7.08Z" transform="translate(-37 -2.51)"/><path class="cls-3" d="M232.28,457.16h28C250.89,447.85,236,447.72,232.28,457.16Z" transform="translate(-37 -2.51)"/><path class="cls-3" d="M259.84,462.31H232.36C235.81,471.63,251.6,471.51,259.84,462.31Z" transform="translate(-37 -2.51)"/><path class="cls-3" d="M304.68,454.92c.46-.51.91-1,1.37-1.55l-4.19-7.3c.8-1,1.75-2.27,2.69-3.51l-8.13-5.05,1.21-2.32c-5.27-.91-7.64,1.36-8.66,5.62h8.6l0,.57L290.7,443l3.42,1.05-9.58,3C293.16,446.89,300.93,445.35,304.68,454.92Z" transform="translate(-37 -2.51)"/><path class="cls-3" d="M229.57,454.71c3.83-8.85,10.88-9.18,18.66-8.17l-7.89-2.37,2.92-1.31-6.57-1.53.15-1,8.25.47c-1.9-5.59-3.87-6.8-8.44-4.94l1,1.62-8.09,5.05,2.66,3.48c-1.24,2.27-2.65,4.81-4.06,7.36Z" transform="translate(-37 -2.51)"/><path class="cls-3" d="M304.45,465c-3.4,7.62-10.26,7.61-17.49,7.68L298,478.56h-8.9c.74,4,3,6.15,7,5.94.22,0,.3-2.48.31-2.51l8.2-5.39-3.17-3.41C305.62,468.62,305.62,468.62,304.45,465Z" transform="translate(-37 -2.51)"/><path class="cls-3" d="M232.39,473.24l-2.84,3.32,8.2,5.3-.8,2c1,.21,2.38.93,2.93.53a86.74,86.74,0,0,0,6.61-5.93H236.3l11-5.79c-7.24-.17-14.12,0-17.87-7.66l-1.22,1.21C229.71,468.76,231.22,471.27,232.39,473.24Z" transform="translate(-37 -2.51)"/><path class="cls-3" d="M301.76,462.4H273.64c6.53,5.57,13.24,7.7,20.88,6C297.62,467.74,300.85,466.64,301.76,462.4Z" transform="translate(-37 -2.51)"/><path class="cls-3" d="M255.85,425.28a7.47,7.47,0,0,0-1.66-.19l4.13,9.54-6.44-3.05-.88,1.06,5.92,12,1.34-.56c-.84-2.59-1.68-5.17-2.51-7.76l.72-.32,6.24,13.5,1-.27L260,431.85l.65-.2,1.71,2.44C262,429.47,259.49,426.1,255.85,425.28Z" transform="translate(-37 -2.51)"/><path class="cls-3" d="M217.31,275c-.56-.16-.9-.38-1.16-.31-14.85,4.3-29.71,8.59-44.53,13-.86.25-1.45,1.38-2.17,2.1l.69.84Z" transform="translate(-37 -2.51)"/><path class="cls-3" d="M384.39,243.75c-5.05,3.77-9.45,8.41-15.25,13.76l22.33,2.72q2.2-2.58,4.4-5.18c-7.34,6.5-15,1.24-22.44,1.23,5.7-5.32,9.52-13.13,19-12.6C389.59,243.11,386.21,242.39,384.39,243.75Z" transform="translate(-37 -2.51)"/><path class="cls-3" d="M144.15,259.62c6.45-.08,12.88-1.14,19.75-1.86-8-12-15.7-16.63-23.08-13.06,10.49-1.49,14.26,6.26,19.91,11.39-7.56.86-15.11,4.82-22.48-1.1C140.08,257.06,142.13,259.65,144.15,259.62Z" transform="translate(-37 -2.51)"/><path class="cls-3" d="M130.14,247.48,109.46,240C120.54,248.15,123.66,249.26,130.14,247.48Z" transform="translate(-37 -2.51)"/><path class="cls-3" d="M424.87,240l-20,7.2C413.41,249.81,418.5,243.2,424.87,240Z" transform="translate(-37 -2.51)"/><path class="cls-3" d="M157.24,255.55c-5.48-3.68-13.22,2.72-17.93-4.62C143.75,258.69,150.83,255.74,157.24,255.55Z" transform="translate(-37 -2.51)"/><path class="cls-3" d="M382,254.06c-1.65-.2-3.41.41-5.12.64.09.5.17,1,.25,1.49,6.24-.49,13.32,2.55,17.67-5.24C391.18,255.38,386.61,254.63,382,254.06Z" transform="translate(-37 -2.51)"/><path class="cls-3" d="M385.49,201.52l-.93.09q1,9.78,1.91,19.56l1.24.07Z" transform="translate(-37 -2.51)"/><path class="cls-3" d="M149.66,201.73l-1-.1q-1.1,9.83-2.2,19.67l1.15.12Q148.65,211.57,149.66,201.73Z" transform="translate(-37 -2.51)"/><path class="cls-3" d="M411.73,250.23c3.69,3.8,1.19,7.38.54,11.07a19.84,19.84,0,0,0,3-8.34C415.31,252.17,413,251.15,411.73,250.23Z" transform="translate(-37 -2.51)"/><path class="cls-3" d="M123.32,250.89l-1-.8c-1.2,1.1-3.5,2.32-3.41,3.29.28,2.74,1.55,5.37,2.42,8.05l1.64-.58C120.72,257.45,119.11,254.07,123.32,250.89Z" transform="translate(-37 -2.51)"/><path class="cls-3" d="M406.73,238.16l1.52.16c.38-1.85,1.68-4.35.94-5.41-1.45-2.07-4-3.34-6.16-4.93-.4.47-.8,1-1.19,1.43C405.93,231,409,233.08,406.73,238.16Z" transform="translate(-37 -2.51)"/><path class="cls-3" d="M124.72,233.4c-.57.78.93,3.07,1.49,4.67l1.25-.09c-2.55-5.18,1.25-6.89,4.78-8.75l-1.35-1.44C128.77,229.62,126.32,231.2,124.72,233.4Z" transform="translate(-37 -2.51)"/><path class="cls-4" d="M201.16,341.78a12.73,12.73,0,0,0-.44-2.56c-7.39-12.28-14.74-24.59-22.31-36.76-.65-1.06-2.79-1.18-4.25-1.74-.22.47-.45.95-.68,1.42Z" transform="translate(-37 -2.51)"/></svg>